<svg xmlns="http://www.w3.org/2000/svg" width="38.114" height="38.114" viewBox="0 0 38.114 38.114">
  <g id="Group_2324" data-name="Group 2324" transform="translate(0.181 0.401)">
    <g id="Group_2325" data-name="Group 2325" transform="translate(0.319 0.099)">
      <path id="Path_631" data-name="Path 631" d="M37.114,21.986v-6.85l-4.706-.442V14.7a14.193,14.193,0,0,0-1.273-3.28l.007.012L34.1,7.861,31.678,5.439,29.257,3.017,25.8,5.878l.012.007a14.2,14.2,0,0,0-3.43-1.46l.013,0L21.982,0h-6.85l-.416,4.425h0A14.2,14.2,0,0,0,11.308,5.88l0,0L7.857,3.017,5.435,5.439,3.013,7.861l2.958,3.571.006-.011A14.2,14.2,0,0,0,4.7,14.712l0-.018L0,15.136v6.85l4.922.462v0h0a14.207,14.207,0,0,0,1.3,2.948l-.005-.008L3.013,29.261l2.422,2.422L7.857,34.1,11.849,30.8l0,0a14.187,14.187,0,0,0,2.8,1.13l.488,5.192h6.85l.488-5.192-.01,0a14.182,14.182,0,0,0,2.82-1.139l-.015.008L29.257,34.1l2.422-2.422L34.1,29.261l-3.208-3.873a14.2,14.2,0,0,0,1.3-2.944v0Zm-10.955,3.8a10.752,10.752,0,1,1,3.149-7.6,10.717,10.717,0,0,1-3.149,7.6" transform="translate(0 -0.004)" fill="#fff" stroke="#fff" stroke-linecap="round" stroke-linejoin="round" stroke-width="1" fill-rule="evenodd"/>
      <g id="Path_632" data-name="Path 632" transform="translate(-608.7 -592.334)" fill="#fff" stroke-linecap="round" stroke-linejoin="round" fill-rule="evenodd">
        <path d="M 629.3986206054688 615.6873168945312 L 629.1915283203125 615.6873168945312 L 627.2569580078125 615.6873168945312 L 625.322021484375 615.6873168945312 L 625.1149291992188 615.6873168945312 L 624.968505859375 615.5408935546875 L 623.6007690429688 614.17333984375 L 622.2324829101562 612.80517578125 L 622.0860595703125 612.65869140625 L 622.0860595703125 612.4515991210938 L 622.0860595703125 610.5169677734375 L 622.0860595703125 608.5823364257812 L 622.0860595703125 608.3751831054688 L 622.2325439453125 608.228759765625 L 623.6007690429688 606.8607788085938 L 624.9684448242188 605.4928588867188 L 625.1148681640625 605.3463745117188 L 625.322021484375 605.3463745117188 L 627.2569580078125 605.3463745117188 L 629.1915283203125 605.3463745117188 L 629.3986206054688 605.3463745117188 L 629.5451049804688 605.4927978515625 L 630.9130249023438 606.8607788085938 L 632.28125 608.228759765625 L 632.427734375 608.3751831054688 L 632.427734375 608.5823364257812 L 632.427734375 610.5169677734375 L 632.427734375 612.4515991210938 L 632.427734375 612.65869140625 L 632.28125 612.80517578125 L 630.9129638671875 614.17333984375 L 629.5450439453125 615.5408935546875 L 629.3986206054688 615.6873168945312 Z" stroke="none"/>
        <path d="M 625.322021484375 605.8463745117188 L 622.5860595703125 608.5823364257812 L 622.5860595703125 612.4515991210938 L 625.322021484375 615.1873168945312 L 629.1915283203125 615.1873168945312 L 631.927734375 612.4515991210938 L 631.927734375 608.5823364257812 L 629.1915283203125 605.8463745117188 L 625.322021484375 605.8463745117188 M 625.322021484375 604.8463745117188 L 629.1915283203125 604.8463745117188 C 629.4567260742188 604.8463745117188 629.7111206054688 604.9517211914062 629.8986206054688 605.1392822265625 L 632.634765625 607.8751220703125 C 632.8223266601562 608.0626831054688 632.927734375 608.3170776367188 632.927734375 608.5823364257812 L 632.927734375 612.4515991210938 C 632.927734375 612.716796875 632.8223876953125 612.97119140625 632.6348266601562 613.1587524414062 L 629.8985595703125 615.89453125 C 629.7109985351562 616.0819702148438 629.4567260742188 616.1873168945312 629.1915283203125 616.1873168945312 L 625.322021484375 616.1873168945312 C 625.0568237304688 616.1873168945312 624.802490234375 616.0819702148438 624.6149291992188 615.8944702148438 L 621.8789672851562 613.15869140625 C 621.69140625 612.97119140625 621.5860595703125 612.716796875 621.5860595703125 612.4515991210938 L 621.5860595703125 608.5823364257812 C 621.5860595703125 608.3170776367188 621.6914672851562 608.0626831054688 621.8790283203125 607.8751831054688 L 624.6148681640625 605.1393432617188 C 624.8023681640625 604.9517822265625 625.0567626953125 604.8463745117188 625.322021484375 604.8463745117188 Z" stroke="none" fill="#fff"/>
      </g>
    </g>
  </g>
</svg>
